<svg width="996" height="1408" xmlns="http://www.w3.org/2000/svg" xmlns:xlink="http://www.w3.org/1999/xlink" xml:space="preserve" overflow="hidden"><g transform="translate(-95 -141)"><rect x="172" y="179" width="843" height="1277" stroke="#00FF00" stroke-width="27.5" stroke-miterlimit="8" fill="#FFFFFF"/><text font-family="Yu Gothic,Yu Gothic_MSFontService,sans-serif" font-weight="700" font-size="183" transform="matrix(1 0 0 1 205.629 365)">H</text><text font-family="Yu Gothic,Yu Gothic_MSFontService,sans-serif" font-weight="700" font-size="183" transform="matrix(1 0 0 1 416.323 365)">H</text><text font-family="Yu Gothic,Yu Gothic_MSFontService,sans-serif" font-weight="700" font-size="183" transform="matrix(1 0 0 1 627.017 365)">H</text><text font-family="Yu Gothic,Yu Gothic_MSFontService,sans-serif" font-weight="700" font-size="183" transform="matrix(1 0 0 1 837.711 365)">H</text><text font-family="Yu Gothic,Yu Gothic_MSFontService,sans-serif" font-weight="700" font-size="183" transform="matrix(1 0 0 1 205.629 621)">H</text><text font-family="Yu Gothic,Yu Gothic_MSFontService,sans-serif" font-weight="700" font-size="183" transform="matrix(1 0 0 1 205.629 876)">H</text><text font-family="Yu Gothic,Yu Gothic_MSFontService,sans-serif" font-weight="700" font-size="183" transform="matrix(1 0 0 1 416.323 876)">H</text><text font-family="Yu Gothic,Yu Gothic_MSFontService,sans-serif" font-weight="700" font-size="183" transform="matrix(1 0 0 1 627.017 876)">H</text><text font-family="Yu Gothic,Yu Gothic_MSFontService,sans-serif" font-weight="700" font-size="183" transform="matrix(1 0 0 1 837.711 876)">H</text><text font-family="Yu Gothic,Yu Gothic_MSFontService,sans-serif" font-weight="700" font-size="183" transform="matrix(1 0 0 1 837.711 1132)">H</text><text font-family="Yu Gothic,Yu Gothic_MSFontService,sans-serif" font-weight="700" font-size="183" transform="matrix(1 0 0 1 837.711 1387)">H</text><text font-family="Yu Gothic,Yu Gothic_MSFontService,sans-serif" font-weight="700" font-size="183" transform="matrix(1 0 0 1 205.629 1387)">H</text><text font-family="Yu Gothic,Yu Gothic_MSFontService,sans-serif" font-weight="700" font-size="183" transform="matrix(1 0 0 1 416.323 1387)">H</text><text font-family="Yu Gothic,Yu Gothic_MSFontService,sans-serif" font-weight="700" font-size="183" transform="matrix(1 0 0 1 627.017 1387)">H</text></g></svg>