<svg width="995" height="1408" xmlns="http://www.w3.org/2000/svg" xmlns:xlink="http://www.w3.org/1999/xlink" xml:space="preserve" overflow="hidden"><g transform="translate(-2201 -141)"><rect x="2278" y="179" width="842" height="1277" stroke="#0000FF" stroke-width="27.5" stroke-miterlimit="8" fill="#FFFFFF"/><text font-family="Yu Gothic,Yu Gothic_MSFontService,sans-serif" font-weight="700" font-size="183" transform="matrix(1 0 0 1 2311.19 365)">H</text><text font-family="Yu Gothic,Yu Gothic_MSFontService,sans-serif" font-weight="700" font-size="183" transform="matrix(1 0 0 1 2521.88 365)">H</text><text font-family="Yu Gothic,Yu Gothic_MSFontService,sans-serif" font-weight="700" font-size="183" transform="matrix(1 0 0 1 2732.58 365)">H</text><text font-family="Yu Gothic,Yu Gothic_MSFontService,sans-serif" font-weight="700" font-size="183" transform="matrix(1 0 0 1 2943.27 365)">H</text><text font-family="Yu Gothic,Yu Gothic_MSFontService,sans-serif" font-weight="700" font-size="183" transform="matrix(1 0 0 1 2311.19 621)">H</text><text font-family="Yu Gothic,Yu Gothic_MSFontService,sans-serif" font-weight="700" font-size="183" transform="matrix(1 0 0 1 2311.19 876)">H</text><text font-family="Yu Gothic,Yu Gothic_MSFontService,sans-serif" font-weight="700" font-size="183" transform="matrix(1 0 0 1 2521.88 876)">H</text><text font-family="Yu Gothic,Yu Gothic_MSFontService,sans-serif" font-weight="700" font-size="183" transform="matrix(1 0 0 1 2732.58 876)">H</text><text font-family="Yu Gothic,Yu Gothic_MSFontService,sans-serif" font-weight="700" font-size="183" transform="matrix(1 0 0 1 2943.27 876)">H</text><text font-family="Yu Gothic,Yu Gothic_MSFontService,sans-serif" font-weight="700" font-size="183" transform="matrix(1 0 0 1 2943.27 1132)">H</text><text font-family="Yu Gothic,Yu Gothic_MSFontService,sans-serif" font-weight="700" font-size="183" transform="matrix(1 0 0 1 2943.27 1387)">H</text><text font-family="Yu Gothic,Yu Gothic_MSFontService,sans-serif" font-weight="700" font-size="183" transform="matrix(1 0 0 1 2311.19 1387)">H</text><text font-family="Yu Gothic,Yu Gothic_MSFontService,sans-serif" font-weight="700" font-size="183" transform="matrix(1 0 0 1 2521.88 1387)">H</text><text font-family="Yu Gothic,Yu Gothic_MSFontService,sans-serif" font-weight="700" font-size="183" transform="matrix(1 0 0 1 2732.58 1387)">H</text></g></svg>