<svg width="974" height="1408" xmlns="http://www.w3.org/2000/svg" xmlns:xlink="http://www.w3.org/1999/xlink" xml:space="preserve" overflow="hidden"><g transform="translate(-3265 -141)"><rect x="3330" y="179" width="843" height="1277" stroke="#0000FF" stroke-width="27.5" stroke-miterlimit="8" fill="#FFFFFF"/><text font-family="Yu Gothic,Yu Gothic_MSFontService,sans-serif" font-weight="700" font-size="183" transform="matrix(1 0 0 1 3375.19 365)">S</text><text font-family="Yu Gothic,Yu Gothic_MSFontService,sans-serif" font-weight="700" font-size="183" transform="matrix(1 0 0 1 3375.19 621)">S</text><text font-family="Yu Gothic,Yu Gothic_MSFontService,sans-serif" font-weight="700" font-size="183" transform="matrix(1 0 0 1 3375.19 876)">S</text><text font-family="Yu Gothic,Yu Gothic_MSFontService,sans-serif" font-weight="700" font-size="183" transform="matrix(1 0 0 1 3375.19 1132)">S</text><text font-family="Yu Gothic,Yu Gothic_MSFontService,sans-serif" font-weight="700" font-size="183" transform="matrix(1 0 0 1 3375.19 1387)">S</text><text font-family="Yu Gothic,Yu Gothic_MSFontService,sans-serif" font-weight="700" font-size="183" transform="matrix(1 0 0 1 3586.11 876)">S</text><text font-family="Yu Gothic,Yu Gothic_MSFontService,sans-serif" font-weight="700" font-size="183" transform="matrix(1 0 0 1 3796.8 876)">S</text><text font-family="Yu Gothic,Yu Gothic_MSFontService,sans-serif" font-weight="700" font-size="183" transform="matrix(1 0 0 1 4007.27 365)">S</text><text font-family="Yu Gothic,Yu Gothic_MSFontService,sans-serif" font-weight="700" font-size="183" transform="matrix(1 0 0 1 4007.27 621)">S</text><text font-family="Yu Gothic,Yu Gothic_MSFontService,sans-serif" font-weight="700" font-size="183" transform="matrix(1 0 0 1 4007.27 876)">S</text><text font-family="Yu Gothic,Yu Gothic_MSFontService,sans-serif" font-weight="700" font-size="183" transform="matrix(1 0 0 1 4007.27 1132)">S</text><text font-family="Yu Gothic,Yu Gothic_MSFontService,sans-serif" font-weight="700" font-size="183" transform="matrix(1 0 0 1 4007.27 1387)">S</text></g></svg>