<svg width="974" height="1408" xmlns="http://www.w3.org/2000/svg" xmlns:xlink="http://www.w3.org/1999/xlink" xml:space="preserve" overflow="hidden"><g transform="translate(-1159 -141)"><rect x="1225" y="179" width="842" height="1277" stroke="#00FF00" stroke-width="27.5" stroke-miterlimit="8" fill="#FFFFFF"/><text font-family="Yu Gothic,Yu Gothic_MSFontService,sans-serif" font-weight="700" font-size="183" transform="matrix(1 0 0 1 1269.63 365)">S</text><text font-family="Yu Gothic,Yu Gothic_MSFontService,sans-serif" font-weight="700" font-size="183" transform="matrix(1 0 0 1 1269.63 621)">S</text><text font-family="Yu Gothic,Yu Gothic_MSFontService,sans-serif" font-weight="700" font-size="183" transform="matrix(1 0 0 1 1269.63 876)">S</text><text font-family="Yu Gothic,Yu Gothic_MSFontService,sans-serif" font-weight="700" font-size="183" transform="matrix(1 0 0 1 1269.63 1132)">S</text><text font-family="Yu Gothic,Yu Gothic_MSFontService,sans-serif" font-weight="700" font-size="183" transform="matrix(1 0 0 1 1269.63 1387)">S</text><text font-family="Yu Gothic,Yu Gothic_MSFontService,sans-serif" font-weight="700" font-size="183" transform="matrix(1 0 0 1 1480.55 876)">S</text><text font-family="Yu Gothic,Yu Gothic_MSFontService,sans-serif" font-weight="700" font-size="183" transform="matrix(1 0 0 1 1691.24 876)">S</text><text font-family="Yu Gothic,Yu Gothic_MSFontService,sans-serif" font-weight="700" font-size="183" transform="matrix(1 0 0 1 1901.72 365)">S</text><text font-family="Yu Gothic,Yu Gothic_MSFontService,sans-serif" font-weight="700" font-size="183" transform="matrix(1 0 0 1 1901.72 621)">S</text><text font-family="Yu Gothic,Yu Gothic_MSFontService,sans-serif" font-weight="700" font-size="183" transform="matrix(1 0 0 1 1901.72 876)">S</text><text font-family="Yu Gothic,Yu Gothic_MSFontService,sans-serif" font-weight="700" font-size="183" transform="matrix(1 0 0 1 1901.72 1132)">S</text><text font-family="Yu Gothic,Yu Gothic_MSFontService,sans-serif" font-weight="700" font-size="183" transform="matrix(1 0 0 1 1901.72 1387)">S</text></g></svg>